<svg width="796" height="255" viewBox="0 0 796 255" fill="none" xmlns="http://www.w3.org/2000/svg">
<rect width="796" height="255" rx="15" fill="#5EEDE4"/>
<path d="M284 162H297V128.6L322.4 162H338.9L308.5 123.3L336.9 92H320.9L297 118V92H284V162ZM346.07 102.8C349.17 105.9 354.37 105.9 357.47 102.8C360.57 99.7 360.57 94.5 357.47 91.4C354.37 88.3 349.17 88.3 346.07 91.4C342.97 94.5 342.97 99.7 346.07 102.8ZM345.57 162H357.97V111.6H345.57V162ZM370.5 162H382.9V141.9C382.9 129.2 388 121.4 394.4 121.4C399.2 121.4 401.6 124.2 401.6 129.7V162H414V126C414 116.1 407.8 110.8 398.5 110.8C392.2 110.8 387 113.8 382.9 119.7V111.6H370.5V162ZM437.391 127.2C438.691 123.3 441.591 121.4 446.091 121.4C451.991 121.4 454.891 123.9 454.891 128.8V131H446.491C433.691 131 424.991 137.5 424.991 147.5C424.991 157.2 431.391 162.8 440.291 162.8C446.691 162.8 451.891 160.4 455.791 155.6L457.091 162H467.291V131.9C467.291 117.8 460.191 110.8 446.091 110.8C435.991 110.8 428.491 116.4 426.891 124.8L437.391 127.2ZM437.991 147.3C437.991 143 440.891 140.8 446.591 140.8H454.891V141.8C454.891 144.9 453.691 147.4 451.291 149.3C448.991 151.2 446.291 152.2 443.191 152.2C439.891 152.2 437.991 150 437.991 147.3ZM489.573 162H500.773L517.873 111.6H505.373L495.173 146.7L484.973 111.6H472.473L489.573 162ZM526.343 102.8C529.443 105.9 534.643 105.9 537.743 102.8C540.843 99.7 540.843 94.5 537.743 91.4C534.643 88.3 529.443 88.3 526.343 91.4C523.243 94.5 523.243 99.7 526.343 102.8ZM525.843 162H538.243V111.6H525.843V162ZM552.631 127.8C552.631 131.9 553.831 135.3 556.131 138.2C552.031 140.7 549.931 144.2 549.931 148.8C549.931 151.9 550.831 154.5 552.531 156.6C549.831 159.1 548.431 162.5 548.431 166.6C548.431 171.9 550.531 176 554.731 178.9C559.031 181.8 564.531 183.2 571.231 183.2C579.231 183.2 585.931 181.2 590.631 175.7C592.931 173 594.131 169.7 594.131 165.8C594.131 156.3 587.231 151 576.431 151H566.131C563.031 151 561.431 149.8 561.431 147.3C561.431 145.7 562.231 144.4 563.831 143.5C566.131 144.2 568.631 144.6 571.131 144.6C576.431 144.6 580.831 143.1 584.331 140.1C587.831 137 589.631 132.9 589.631 127.8C589.631 124.8 588.931 122.1 587.631 119.8L594.831 116.2L589.931 108L580.431 113C577.531 111.5 574.431 110.8 571.131 110.8C565.831 110.8 561.431 112.4 557.931 115.5C554.431 118.6 552.631 122.7 552.631 127.8ZM573.631 161.4C579.031 161.4 581.731 163.1 581.731 166.6C581.731 170.7 578.231 172.8 571.231 172.8C564.431 172.8 559.931 170.3 559.931 165.6C559.931 163.6 560.331 162.1 561.031 161C562.631 161.3 564.531 161.4 566.831 161.4H573.631ZM564.231 127.8C564.231 123.7 567.131 120.8 571.131 120.8C575.131 120.8 578.031 123.7 578.031 127.8C578.031 131.8 575.131 134.6 571.131 134.6C567.131 134.6 564.231 131.8 564.231 127.8ZM605.81 160.2C609.01 163.4 614.61 163.4 617.81 160.2C621.01 157 621.01 151.4 617.81 148.2C614.61 145 609.01 145 605.81 148.2C602.61 151.4 602.61 157 605.81 160.2ZM637.823 122.2V162H650.223V122.2H660.823V111.6H650.223V108.1C650.223 103.9 652.123 101.8 655.923 101.8C657.723 101.8 659.723 102.3 661.923 103.2L664.623 93.2C662.123 91.9 659.023 91.2 655.223 91.2C644.423 91.2 637.823 97.1 637.823 109V111.6H631.423V122.2H637.823ZM683.681 144.1C683.681 128.8 689.281 121.9 697.181 121.9C699.081 121.9 700.881 122.4 702.381 123.3L704.681 111.8C702.481 111.1 700.481 110.8 698.581 110.8C692.681 110.8 687.281 114.1 683.681 119.8V111.6H671.281V162H683.681V144.1Z" fill="#202020"/>
<path d="M164.317 176.693L76.9169 185.193C73.9169 185.493 72.9169 187.793 75.4169 189.493C81.3169 193.393 94.9169 198.793 124.917 197.593C163.117 196.093 170.517 187.293 171.117 181.393C171.317 178.393 167.317 176.393 164.317 176.693Z" fill="#010002"/>
<path d="M110.617 178.693C108.317 178.693 106.517 176.893 106.517 174.593C105.817 124.093 75.0169 68.2928 74.7169 67.7928C73.6169 65.7928 74.3169 63.2928 76.3169 62.1928C78.3169 61.0928 80.8169 61.7928 81.9169 63.7928C83.2169 66.1928 114.117 121.993 114.717 174.593C114.817 176.793 112.917 178.693 110.617 178.693Z" fill="#010002"/>
<path d="M112.317 75.3927C100.717 66.8927 90.7169 60.8926 85.0169 57.7926C82.3169 56.2926 81.8169 56.9926 83.8169 59.2926C89.2169 65.7926 93.9169 73.3927 97.9169 81.3927C99.3169 84.0927 102.217 84.7926 104.917 83.2926C106.717 82.2926 108.917 81.1926 111.517 80.2926C114.317 79.2926 114.717 77.2927 112.317 75.3927Z" fill="#010002"/>
<path d="M105.617 99.5924C108.817 108.292 111.317 117.092 113.417 125.492C114.117 128.492 116.817 129.692 119.717 128.492C126.117 125.792 137.017 122.592 153.817 121.192C156.817 120.892 157.917 118.792 156.017 116.392C147.917 106.192 138.817 97.0924 129.717 89.1924C127.417 87.1924 123.017 85.8924 120.017 86.4924C114.617 87.6924 110.717 89.3924 108.117 90.9924C105.317 92.5924 104.517 96.6924 105.617 99.5924Z" fill="#010002"/>
<path d="M167.617 133.593C166.117 130.993 162.217 128.893 159.217 129.093C139.517 130.293 127.817 133.993 121.917 136.493C119.117 137.693 117.317 141.493 117.717 144.593C118.717 151.993 120.317 164.593 120.717 169.093C121.017 172.093 123.217 173.093 126.017 171.893C140.217 165.593 164.317 166.393 175.117 167.193C178.117 167.393 180.217 165.193 179.417 162.293C176.917 152.093 172.817 142.493 167.617 133.593Z" fill="#010002"/>
</svg>
